<svg width="261" height="288" viewBox="0 0 261 288" fill="none" xmlns="http://www.w3.org/2000/svg">
<path fill-rule="evenodd" clip-rule="evenodd" d="M221 73C239.225 73 254 58.2254 254 40C254 21.7746 239.225 7 221 7C202.775 7 188 21.7746 188 40C188 58.2254 202.775 73 221 73ZM221 80C243.091 80 261 62.0914 261 40C261 17.9086 243.091 0 221 0C198.909 0 181 17.9086 181 40C181 50.257 184.861 59.6124 191.208 66.6922L111.076 155.277L88.9603 136.848L87.0397 139.152L109.062 157.504L73.8189 196.464C67.8033 189.006 59.2591 183.673 49.489 181.768L60.9082 146.021C63.1626 146.659 65.5415 147 68 147C82.3594 147 94 135.359 94 121C94 106.641 82.3594 95 68 95C53.6406 95 42 106.641 42 121C42 131.871 48.6715 141.183 58.1435 145.067L58.0711 145.044L46.5711 181.044L48.0376 181.512C45.9079 181.175 43.7244 181 41.5 181C18.5802 181 0 199.58 0 222.5C0 245.42 18.5802 264 41.5 264C61.9475 264 78.9411 249.212 82.3693 229.748L82.3437 229.992L134.844 235.492L135.003 233.976C135.002 234.064 135.001 234.153 135.001 234.241L135 234.369L135 234.5C135 264.047 158.953 288 188.5 288C218.047 288 242 264.047 242 234.5C242 208.381 223.283 186.634 198.53 181.939L215.419 79.6138C217.243 79.8684 219.106 80 221 80ZM212.465 79.0875L195.568 181.463C193.256 181.158 190.896 181 188.5 181C159.624 181 136.091 203.877 135.037 232.496L82.7568 227.019C82.9175 225.535 83 224.027 83 222.5C83 213.738 80.2847 205.61 75.6495 198.912L111.368 159.426L153.04 194.152L154.96 191.848L113.382 157.199L193.297 68.8544C198.527 73.8768 205.12 77.4911 212.465 79.0875ZM68 140C78.4934 140 87 131.493 87 121C87 110.507 78.4934 102 68 102C57.5066 102 49 110.507 49 121C49 131.493 57.5066 140 68 140ZM235 234.5C235 260.181 214.181 281 188.5 281C162.819 281 142 260.181 142 234.5C142 208.819 162.819 188 188.5 188C214.181 188 235 208.819 235 234.5ZM41.5 257C60.5538 257 76 241.554 76 222.5C76 203.446 60.5538 188 41.5 188C22.4462 188 7 203.446 7 222.5C7 241.554 22.4462 257 41.5 257Z" fill="black"/>
</svg>
